<svg width="35" height="25" viewBox="0 0 35 25" fill="none" xmlns="http://www.w3.org/2000/svg">
<path d="M12.5267 24.8757L12.5173 24.8716L12.488 24.8549C12.3164 24.7565 12.1461 24.6556 11.9773 24.5521C9.94775 23.2958 8.05103 21.82 6.31867 20.1492C3.25067 17.1672 0 12.7421 0 7.29195C0 3.22518 3.28533 9.85459e-05 7.25067 9.85459e-05C8.353 -0.0055258 9.44237 0.2478 10.4378 0.741236C11.4331 1.23467 12.3089 1.95552 13 2.85017C13.6912 1.95534 14.5672 1.23438 15.5628 0.740934C16.5585 0.24749 17.6481 -0.00573494 18.7507 9.85459e-05C22.7147 9.85459e-05 26 3.22518 26 7.29195C26 12.7435 22.7493 17.1686 19.6813 20.1478C17.949 21.8187 16.0523 23.2945 14.0227 24.5507C13.8539 24.6547 13.6836 24.7561 13.512 24.8549L13.4827 24.8716L13.4733 24.8771L13.4693 24.8785C13.3247 24.9583 13.1636 25 13 25C12.8364 25 12.6753 24.9583 12.5307 24.8785L12.5267 24.8757Z" fill="white"/>
<path d="M25.4834 22.4477L29.252 15.4393H26.6529V10.9044L22.7543 17.9129H25.4834V22.4477ZM26.0032 24.9213C24.8047 24.9213 23.6784 24.7049 22.6244 24.272C21.5703 23.8391 20.6534 23.2516 19.8737 22.5096C19.094 21.7675 18.4767 20.8949 18.0219 19.8917C17.567 18.8885 17.3396 17.8167 17.3396 16.6761C17.3396 15.5355 17.567 14.4636 18.0219 13.4604C18.4767 12.4573 19.094 11.5846 19.8737 10.8426C20.6534 10.1005 21.5703 9.51303 22.6244 9.08016C23.6784 8.64728 24.8047 8.43085 26.0032 8.43085C27.2016 8.43085 28.3279 8.64728 29.382 9.08016C30.436 9.51303 31.3529 10.1005 32.1326 10.8426C32.9124 11.5846 33.5296 12.4573 33.9845 13.4604C34.4393 14.4636 34.6667 15.5355 34.6667 16.6761C34.6667 17.8167 34.4393 18.8885 33.9845 19.8917C33.5296 20.8949 32.9124 21.7675 32.1326 22.5096C31.3529 23.2516 30.436 23.8391 29.382 24.272C28.3279 24.7049 27.2016 24.9213 26.0032 24.9213Z" fill="#894189"/>
<path d="M25.9244 21.923L29.3505 15.5517H26.9877V11.4291L23.4435 17.8004H25.9244V21.923ZM26.397 24.1717C25.3075 24.1717 24.2836 23.9749 23.3253 23.5814C22.3671 23.1879 21.5336 22.6538 20.8247 21.9792C20.1159 21.3046 19.5547 20.5113 19.1412 19.5994C18.7277 18.6874 18.521 17.7129 18.521 16.676C18.521 15.6391 18.7277 14.6647 19.1412 13.7527C19.5547 12.8408 20.1159 12.0475 20.8247 11.3729C21.5336 10.6983 22.3671 10.1642 23.3253 9.77067C24.2836 9.37715 25.3075 9.18039 26.397 9.18039C27.4865 9.18039 28.5104 9.37715 29.4686 9.77067C30.4268 10.1642 31.2604 10.6983 31.9692 11.3729C32.6781 12.0475 33.2392 12.8408 33.6527 13.7527C34.0662 14.6647 34.2729 15.6391 34.2729 16.676C34.2729 17.7129 34.0662 18.6874 33.6527 19.5994C33.2392 20.5113 32.6781 21.3046 31.9692 21.9792C31.2604 22.6538 30.4268 23.1879 29.4686 23.5814C28.5104 23.9749 27.4865 24.1717 26.397 24.1717Z" fill="white"/>
</svg>
